<svg width="794" height="691" viewBox="0 0 794 691" fill="none" xmlns="http://www.w3.org/2000/svg">
<path d="M712.542 355.187V338.427H714.88V345.669H719.183V338.427H721.521V355.187H719.183V347.345H714.88V355.187H712.542ZM724.098 355.187V343.227H726.312V355.187H724.098ZM724.098 341.448V339.131H726.312V341.448H724.098ZM731.847 358.932C731.116 358.932 730.454 358.849 729.861 358.683C729.282 358.531 728.82 358.29 728.475 357.959C728.144 357.628 727.978 357.194 727.978 356.656C727.978 356.242 728.075 355.876 728.268 355.559C728.461 355.255 728.709 354.993 729.013 354.773C729.316 354.552 729.633 354.38 729.965 354.255L730.999 354.4C730.82 354.566 730.647 354.738 730.482 354.918C730.316 355.083 730.178 355.255 730.068 355.435C729.958 355.628 729.902 355.835 729.902 356.056C729.902 356.414 730.054 356.683 730.358 356.862C730.675 357.042 731.234 357.131 732.034 357.131C732.82 357.131 733.399 357.035 733.772 356.842C734.158 356.662 734.351 356.373 734.351 355.973C734.351 355.724 734.303 355.518 734.206 355.352C734.11 355.2 733.944 355.076 733.71 354.98C733.475 354.883 733.137 354.814 732.696 354.773L730.089 354.442C729.551 354.373 729.151 354.2 728.889 353.924C728.627 353.649 728.495 353.345 728.495 353.014C728.495 352.517 728.633 352.097 728.909 351.752C729.199 351.407 729.585 351.021 730.068 350.593L730.813 351.173C730.73 351.283 730.627 351.442 730.502 351.648C730.378 351.842 730.316 352.035 730.316 352.228C730.316 352.38 730.392 352.504 730.544 352.6C730.709 352.697 730.965 352.759 731.309 352.786L733.316 352.973C734.254 353.055 734.951 353.338 735.406 353.821C735.861 354.304 736.089 354.993 736.089 355.89C736.089 356.552 735.93 357.111 735.613 357.566C735.31 358.021 734.847 358.359 734.227 358.58C733.606 358.814 732.813 358.932 731.847 358.932ZM731.93 351.504C731.116 351.504 730.454 351.324 729.944 350.966C729.433 350.607 729.054 350.11 728.806 349.476C728.571 348.841 728.454 348.117 728.454 347.303C728.454 346.379 728.585 345.607 728.847 344.986C729.109 344.352 729.496 343.876 730.006 343.558C730.53 343.227 731.171 343.062 731.93 343.062C732.716 343.062 733.358 343.262 733.854 343.662C734.351 344.048 734.716 344.565 734.951 345.214C735.185 345.862 735.303 346.579 735.303 347.365C735.303 348.179 735.192 348.903 734.972 349.538C734.765 350.159 734.413 350.641 733.916 350.986C733.434 351.331 732.772 351.504 731.93 351.504ZM731.93 349.91C732.234 349.91 732.475 349.855 732.654 349.745C732.834 349.621 732.965 349.448 733.047 349.228C733.144 349.007 733.206 348.738 733.234 348.421C733.275 348.09 733.296 347.717 733.296 347.303C733.296 346.89 733.282 346.517 733.254 346.186C733.227 345.855 733.165 345.579 733.068 345.359C732.972 345.124 732.834 344.945 732.654 344.821C732.475 344.696 732.24 344.634 731.951 344.634C731.647 344.634 731.399 344.696 731.206 344.821C731.027 344.931 730.882 345.103 730.771 345.338C730.675 345.559 730.606 345.834 730.565 346.165C730.537 346.496 730.523 346.876 730.523 347.303C730.523 347.676 730.537 348.021 730.565 348.338C730.606 348.655 730.675 348.931 730.771 349.166C730.868 349.4 731.006 349.586 731.185 349.724C731.378 349.848 731.627 349.91 731.93 349.91ZM734.889 345.234L734.372 344.407C734.482 344.214 734.73 343.972 735.116 343.683C735.503 343.393 735.917 343.152 736.358 342.958L736.937 344.407C736.744 344.448 736.482 344.524 736.151 344.634C735.834 344.745 735.544 344.862 735.282 344.986C735.02 345.096 734.889 345.179 734.889 345.234ZM737.877 355.187V338.427H740.091V344.469C740.491 344.083 740.939 343.752 741.436 343.476C741.932 343.2 742.484 343.062 743.091 343.062C743.56 343.062 743.918 343.186 744.167 343.434C744.429 343.683 744.608 343.993 744.705 344.365C744.815 344.738 744.87 345.117 744.87 345.503V355.187H742.656V346.145C742.656 345.717 742.594 345.386 742.47 345.152C742.346 344.917 742.091 344.8 741.704 344.8C741.442 344.8 741.167 344.876 740.877 345.027C740.601 345.179 740.339 345.365 740.091 345.586V355.187H737.877ZM751.943 355.187V338.427H758.44V340.165H754.281V345.71H757.653V347.365H754.281V353.511H758.481V355.187H751.943ZM760.886 355.187V344.862H759.458V343.227H760.886V342.607C760.886 341.862 760.941 341.227 761.051 340.703C761.175 340.165 761.424 339.751 761.796 339.462C762.169 339.172 762.727 339.027 763.472 339.027C763.748 339.027 763.989 339.041 764.196 339.069C764.417 339.082 764.658 339.117 764.92 339.172V340.786C764.796 340.758 764.658 340.738 764.507 340.724C764.355 340.696 764.217 340.682 764.093 340.682C763.665 340.682 763.389 340.827 763.265 341.117C763.155 341.393 763.1 341.765 763.1 342.234V343.227H764.92V344.862H763.1V355.187H760.886ZM766.141 355.187V344.862H764.714V343.227H766.141V342.607C766.141 341.862 766.196 341.227 766.307 340.703C766.431 340.165 766.679 339.751 767.052 339.462C767.424 339.172 767.983 339.027 768.727 339.027C769.003 339.027 769.245 339.041 769.452 339.069C769.672 339.082 769.914 339.117 770.176 339.172V340.786C770.052 340.758 769.914 340.738 769.762 340.724C769.61 340.696 769.472 340.682 769.348 340.682C768.921 340.682 768.645 340.827 768.521 341.117C768.41 341.393 768.355 341.765 768.355 342.234V343.227H770.176V344.862H768.355V355.187H766.141ZM774.262 355.352C773.379 355.352 772.682 355.173 772.172 354.814C771.662 354.455 771.296 353.945 771.076 353.283C770.869 352.621 770.765 351.842 770.765 350.945V347.469C770.765 346.572 770.869 345.793 771.076 345.131C771.296 344.469 771.662 343.958 772.172 343.6C772.682 343.241 773.379 343.062 774.262 343.062C775.145 343.062 775.834 343.241 776.331 343.6C776.841 343.958 777.2 344.469 777.407 345.131C777.628 345.793 777.738 346.572 777.738 347.469V350.945C777.738 351.842 777.628 352.621 777.407 353.283C777.2 353.945 776.841 354.455 776.331 354.814C775.834 355.173 775.145 355.352 774.262 355.352ZM774.262 353.717C774.689 353.717 774.986 353.593 775.152 353.345C775.331 353.097 775.434 352.773 775.462 352.373C775.503 351.959 775.524 351.531 775.524 351.09V347.345C775.524 346.89 775.503 346.462 775.462 346.062C775.434 345.662 775.331 345.338 775.152 345.09C774.986 344.827 774.689 344.696 774.262 344.696C773.834 344.696 773.531 344.827 773.351 345.09C773.172 345.338 773.062 345.662 773.02 346.062C772.993 346.462 772.979 346.89 772.979 347.345V351.09C772.979 351.531 772.993 351.959 773.02 352.373C773.062 352.773 773.172 353.097 773.351 353.345C773.531 353.593 773.834 353.717 774.262 353.717ZM779.824 355.187V343.227H782.037V344.924C782.479 344.193 782.92 343.703 783.362 343.455C783.803 343.207 784.244 343.083 784.686 343.083C784.741 343.083 784.789 343.083 784.831 343.083C784.886 343.083 784.955 343.089 785.038 343.103V345.545C784.872 345.476 784.679 345.421 784.458 345.379C784.251 345.324 784.038 345.296 783.817 345.296C783.472 345.296 783.155 345.379 782.865 345.545C782.589 345.696 782.313 346 782.037 346.455V355.187H779.824ZM789.596 355.352C788.975 355.352 788.471 355.235 788.085 355C787.713 354.766 787.437 354.435 787.257 354.007C787.092 353.58 787.009 353.076 787.009 352.497V344.696H785.747V343.227H787.009V339.731H789.223V343.227H791.147V344.696H789.223V352.352C789.223 352.821 789.299 353.159 789.451 353.366C789.602 353.559 789.892 353.655 790.32 353.655C790.43 353.655 790.554 353.649 790.692 353.635C790.844 353.621 790.989 353.607 791.127 353.593V355.228C790.851 355.269 790.596 355.297 790.361 355.311C790.127 355.338 789.871 355.352 789.596 355.352Z" fill="#29304D"/>
<path d="M1.30351 355.187V338.427H3.64154V353.511H7.92448V355.187H1.30351ZM12.5702 355.352C11.6874 355.352 10.9908 355.173 10.4804 354.814C9.97005 354.455 9.60451 353.945 9.38381 353.283C9.17691 352.621 9.07346 351.842 9.07346 350.945V347.469C9.07346 346.572 9.17691 345.793 9.38381 345.131C9.60451 344.469 9.97005 343.958 10.4804 343.6C10.9908 343.241 11.6874 343.062 12.5702 343.062C13.453 343.062 14.1426 343.241 14.6392 343.6C15.1496 343.958 15.5082 344.469 15.7151 345.131C15.9358 345.793 16.0462 346.572 16.0462 347.469V350.945C16.0462 351.842 15.9358 352.621 15.7151 353.283C15.5082 353.945 15.1496 354.455 14.6392 354.814C14.1426 355.173 13.453 355.352 12.5702 355.352ZM12.5702 353.717C12.9978 353.717 13.2943 353.593 13.4599 353.345C13.6392 353.097 13.7426 352.773 13.7702 352.373C13.8116 351.959 13.8323 351.531 13.8323 351.09V347.345C13.8323 346.89 13.8116 346.462 13.7702 346.062C13.7426 345.662 13.6392 345.338 13.4599 345.09C13.2943 344.827 12.9978 344.696 12.5702 344.696C12.1426 344.696 11.8391 344.827 11.6598 345.09C11.4805 345.338 11.3701 345.662 11.3287 346.062C11.3011 346.462 11.2873 346.89 11.2873 347.345V351.09C11.2873 351.531 11.3011 351.959 11.3287 352.373C11.3701 352.773 11.4805 353.097 11.6598 353.345C11.8391 353.593 12.1426 353.717 12.5702 353.717ZM19.4359 355.187L17.5116 343.227H19.3324L20.5738 352.042L22.167 343.227H23.8636L25.4568 352L26.6983 343.227H28.519L26.5327 355.187H24.6706L23.036 346.745L21.4222 355.187H19.4359ZM35.1277 355.187V338.427H41.6246V340.165H37.4657V345.71H40.8383V347.365H37.4657V353.511H41.6659V355.187H35.1277ZM44.0707 355.187V344.862H42.6431V343.227H44.0707V342.607C44.0707 341.862 44.1259 341.227 44.2362 340.703C44.3604 340.165 44.6087 339.751 44.9811 339.462C45.3535 339.172 45.9122 339.027 46.657 339.027C46.9329 339.027 47.1743 339.041 47.3812 339.069C47.6019 339.082 47.8433 339.117 48.1054 339.172V340.786C47.9812 340.758 47.8433 340.738 47.6916 340.724C47.5398 340.696 47.4019 340.682 47.2778 340.682C46.8502 340.682 46.5743 340.827 46.4501 341.117C46.3398 341.393 46.2846 341.765 46.2846 342.234V343.227H48.1054V344.862H46.2846V355.187H44.0707ZM49.3261 355.187V344.862H47.8985V343.227H49.3261V342.607C49.3261 341.862 49.3813 341.227 49.4916 340.703C49.6158 340.165 49.8641 339.751 50.2365 339.462C50.6089 339.172 51.1676 339.027 51.9124 339.027C52.1883 339.027 52.4297 339.041 52.6366 339.069C52.8573 339.082 53.0987 339.117 53.3608 339.172V340.786C53.2366 340.758 53.0987 340.738 52.947 340.724C52.7952 340.696 52.6573 340.682 52.5332 340.682C52.1056 340.682 51.8297 340.827 51.7055 341.117C51.5952 341.393 51.54 341.765 51.54 342.234V343.227H53.3608V344.862H51.54V355.187H49.3261ZM57.4468 355.352C56.564 355.352 55.8675 355.173 55.3571 354.814C54.8467 354.455 54.4812 353.945 54.2605 353.283C54.0536 352.621 53.9501 351.842 53.9501 350.945V347.469C53.9501 346.572 54.0536 345.793 54.2605 345.131C54.4812 344.469 54.8467 343.958 55.3571 343.6C55.8675 343.241 56.564 343.062 57.4468 343.062C58.3296 343.062 59.0193 343.241 59.5159 343.6C60.0263 343.958 60.3849 344.469 60.5918 345.131C60.8125 345.793 60.9229 346.572 60.9229 347.469V350.945C60.9229 351.842 60.8125 352.621 60.5918 353.283C60.3849 353.945 60.0263 354.455 59.5159 354.814C59.0193 355.173 58.3296 355.352 57.4468 355.352ZM57.4468 353.717C57.8745 353.717 58.171 353.593 58.3365 353.345C58.5159 353.097 58.6193 352.773 58.6469 352.373C58.6883 351.959 58.709 351.531 58.709 351.09V347.345C58.709 346.89 58.6883 346.462 58.6469 346.062C58.6193 345.662 58.5159 345.338 58.3365 345.09C58.171 344.827 57.8745 344.696 57.4468 344.696C57.0192 344.696 56.7158 344.827 56.5365 345.09C56.3571 345.338 56.2468 345.662 56.2054 346.062C56.1778 346.462 56.164 346.89 56.164 347.345V351.09C56.164 351.531 56.1778 351.959 56.2054 352.373C56.2468 352.773 56.3571 353.097 56.5365 353.345C56.7158 353.593 57.0192 353.717 57.4468 353.717ZM63.0086 355.187V343.227H65.2225V344.924C65.6639 344.193 66.1052 343.703 66.5466 343.455C66.988 343.207 67.4294 343.083 67.8708 343.083C67.926 343.083 67.9743 343.083 68.0157 343.083C68.0709 343.083 68.1398 343.089 68.2226 343.103V345.545C68.0571 345.476 67.8639 345.421 67.6432 345.379C67.4363 345.324 67.2225 345.296 67.0018 345.296C66.657 345.296 66.3397 345.379 66.0501 345.545C65.7742 345.696 65.4983 346 65.2225 346.455V355.187H63.0086ZM72.7805 355.352C72.1598 355.352 71.6563 355.235 71.2701 355C70.8976 354.766 70.6218 354.435 70.4425 354.007C70.2769 353.58 70.1942 353.076 70.1942 352.497V344.696H68.932V343.227H70.1942V339.731H72.4081V343.227H74.3323V344.696H72.4081V352.352C72.4081 352.821 72.4839 353.159 72.6357 353.366C72.7874 353.559 73.0771 353.655 73.5047 353.655C73.615 353.655 73.7392 353.649 73.8771 353.635C74.0288 353.621 74.1737 353.607 74.3116 353.593V355.228C74.0357 355.269 73.7805 355.297 73.546 355.311C73.3115 355.338 73.0564 355.352 72.7805 355.352Z" fill="#29304D"/>
<path d="M356.491 25V8.24065H358.829V15.4823H363.133V8.24065H365.471V25H363.133V17.1583H358.829V25H356.491ZM368.048 25V13.0409H370.262V25H368.048ZM368.048 11.2615V8.94413H370.262V11.2615H368.048ZM375.797 28.745C375.066 28.745 374.403 28.6622 373.81 28.4967C373.231 28.345 372.769 28.1036 372.424 27.7725C372.093 27.4415 371.927 27.007 371.927 26.469C371.927 26.0552 372.024 25.6897 372.217 25.3724C372.41 25.069 372.659 24.8069 372.962 24.5862C373.265 24.3655 373.583 24.1931 373.914 24.0689L374.948 24.2138C374.769 24.3793 374.597 24.5517 374.431 24.731C374.265 24.8965 374.128 25.069 374.017 25.2483C373.907 25.4414 373.852 25.6483 373.852 25.869C373.852 26.2276 374.003 26.4966 374.307 26.6759C374.624 26.8553 375.183 26.9449 375.983 26.9449C376.769 26.9449 377.348 26.8484 377.721 26.6552C378.107 26.4759 378.3 26.1863 378.3 25.7862C378.3 25.538 378.252 25.331 378.155 25.1655C378.059 25.0138 377.893 24.8897 377.659 24.7931C377.424 24.6965 377.086 24.6276 376.645 24.5862L374.038 24.2551C373.5 24.1862 373.1 24.0138 372.838 23.7379C372.576 23.462 372.445 23.1585 372.445 22.8275C372.445 22.3309 372.583 21.9102 372.859 21.5654C373.148 21.2205 373.534 20.8343 374.017 20.4067L374.762 20.986C374.679 21.0964 374.576 21.255 374.452 21.4619C374.328 21.655 374.265 21.8481 374.265 22.0413C374.265 22.193 374.341 22.3171 374.493 22.4137C374.659 22.5102 374.914 22.5723 375.259 22.5999L377.266 22.7861C378.204 22.8689 378.9 23.1516 379.355 23.6344C379.811 24.1172 380.038 24.8069 380.038 25.7035C380.038 26.3656 379.88 26.9242 379.562 27.3794C379.259 27.8346 378.797 28.1726 378.176 28.3933C377.555 28.6277 376.762 28.745 375.797 28.745ZM375.879 21.3171C375.066 21.3171 374.403 21.1378 373.893 20.7791C373.383 20.4205 373.003 19.9239 372.755 19.2894C372.521 18.6549 372.403 17.9307 372.403 17.1169C372.403 16.1927 372.534 15.4203 372.796 14.7996C373.059 14.165 373.445 13.6892 373.955 13.3719C374.479 13.0409 375.121 12.8753 375.879 12.8753C376.666 12.8753 377.307 13.0753 377.804 13.4754C378.3 13.8616 378.666 14.3788 378.9 15.0272C379.135 15.6755 379.252 16.3927 379.252 17.179C379.252 17.9928 379.142 18.717 378.921 19.3515C378.714 19.9722 378.362 20.455 377.866 20.7998C377.383 21.1447 376.721 21.3171 375.879 21.3171ZM375.879 19.7239C376.183 19.7239 376.424 19.6687 376.604 19.5584C376.783 19.4342 376.914 19.2618 376.997 19.0411C377.093 18.8204 377.155 18.5514 377.183 18.2342C377.224 17.9031 377.245 17.5307 377.245 17.1169C377.245 16.7031 377.231 16.3307 377.204 15.9996C377.176 15.6686 377.114 15.3927 377.017 15.172C376.921 14.9375 376.783 14.7582 376.604 14.634C376.424 14.5099 376.19 14.4478 375.9 14.4478C375.597 14.4478 375.348 14.5099 375.155 14.634C374.976 14.7444 374.831 14.9168 374.721 15.1513C374.624 15.372 374.555 15.6479 374.514 15.9789C374.486 16.31 374.472 16.6893 374.472 17.1169C374.472 17.4893 374.486 17.8342 374.514 18.1514C374.555 18.4687 374.624 18.7446 374.721 18.979C374.817 19.2135 374.955 19.3998 375.134 19.5377C375.328 19.6618 375.576 19.7239 375.879 19.7239ZM378.838 15.0478L378.321 14.2202C378.431 14.0271 378.679 13.7857 379.066 13.496C379.452 13.2064 379.866 12.965 380.307 12.7719L380.886 14.2202C380.693 14.2616 380.431 14.3375 380.1 14.4478C379.783 14.5582 379.493 14.6754 379.231 14.7996C378.969 14.9099 378.838 14.9927 378.838 15.0478ZM381.826 25V8.24065H384.04V14.2823C384.44 13.8961 384.888 13.565 385.385 13.2891C385.881 13.0133 386.433 12.8753 387.04 12.8753C387.509 12.8753 387.868 12.9995 388.116 13.2478C388.378 13.4961 388.557 13.8064 388.654 14.1788C388.764 14.5513 388.819 14.9306 388.819 15.3168V25H386.605V15.9582C386.605 15.5306 386.543 15.1996 386.419 14.9651C386.295 14.7306 386.04 14.6133 385.654 14.6133C385.392 14.6133 385.116 14.6892 384.826 14.8409C384.55 14.9927 384.288 15.1789 384.04 15.3996V25H381.826ZM396.016 25V8.24065H398.313V25H396.016ZM400.838 25V13.0409H402.886V14.1788C403.286 13.7236 403.728 13.3857 404.211 13.165C404.693 12.9443 405.19 12.834 405.7 12.834C406.142 12.834 406.535 12.9443 406.88 13.165C407.238 13.3857 407.493 13.7788 407.645 14.3444C408.073 13.8202 408.535 13.4409 409.031 13.2064C409.542 12.9581 410.073 12.834 410.625 12.834C411.011 12.834 411.363 12.9305 411.68 13.1236C411.997 13.3029 412.252 13.5995 412.445 14.0133C412.638 14.4133 412.735 14.9444 412.735 15.6065V25H410.707V15.7513C410.707 15.172 410.611 14.7858 410.418 14.5927C410.238 14.3857 409.99 14.2823 409.673 14.2823C409.369 14.2823 409.052 14.372 408.721 14.5513C408.39 14.7168 408.087 14.9513 407.811 15.2547C407.811 15.3099 407.811 15.3651 407.811 15.4203C407.811 15.4754 407.811 15.5375 407.811 15.6065V25H405.783V15.7513C405.783 15.172 405.686 14.7858 405.493 14.5927C405.314 14.3857 405.066 14.2823 404.748 14.2823C404.445 14.2823 404.128 14.372 403.797 14.5513C403.479 14.7168 403.176 14.9513 402.886 15.2547V25H400.838ZM414.901 28.9312V13.0409H417.115V13.9926C417.377 13.6892 417.694 13.4271 418.067 13.2064C418.439 12.9857 418.881 12.8753 419.391 12.8753C420.012 12.8753 420.501 13.0409 420.86 13.3719C421.232 13.6892 421.508 14.0961 421.688 14.5927C421.867 15.0754 421.984 15.572 422.039 16.0824C422.095 16.5789 422.122 17.0065 422.122 17.3652V20.2619C422.122 21.1033 422.039 21.9033 421.874 22.662C421.708 23.4068 421.405 24.0138 420.963 24.4827C420.536 24.9379 419.929 25.1655 419.143 25.1655C418.715 25.1655 418.336 25.0621 418.005 24.8552C417.674 24.6345 417.377 24.3862 417.115 24.1103V28.9312H414.901ZM418.708 23.4275C419.094 23.4275 419.37 23.2896 419.536 23.0137C419.701 22.724 419.805 22.3378 419.846 21.855C419.888 21.3723 419.908 20.8412 419.908 20.2619V17.3652C419.908 16.8686 419.881 16.4134 419.825 15.9996C419.77 15.572 419.653 15.2341 419.474 14.9858C419.294 14.7375 419.012 14.6133 418.625 14.6133C418.336 14.6133 418.06 14.6754 417.798 14.7996C417.536 14.9237 417.308 15.0685 417.115 15.2341V22.8896C417.322 23.0413 417.556 23.1723 417.818 23.2827C418.081 23.3792 418.377 23.4275 418.708 23.4275ZM425.935 25.1655C425.466 25.1655 425.052 25.0345 424.694 24.7724C424.335 24.4965 424.052 24.1517 423.845 23.7379C423.638 23.3103 423.535 22.862 423.535 22.393C423.535 21.6481 423.659 21.0205 423.907 20.5101C424.156 19.9998 424.494 19.5722 424.921 19.2273C425.363 18.8687 425.866 18.5583 426.432 18.2963C427.011 18.0342 427.618 17.779 428.252 17.5307V16.6824C428.252 16.1996 428.225 15.7996 428.17 15.4823C428.115 15.1651 427.997 14.9306 427.818 14.7789C427.652 14.6133 427.397 14.5306 427.052 14.5306C426.749 14.5306 426.501 14.5995 426.308 14.7375C426.128 14.8754 425.997 15.0754 425.914 15.3375C425.832 15.5858 425.79 15.8824 425.79 16.2272V16.8272L423.597 16.7445C423.625 15.4203 423.928 14.4478 424.507 13.8271C425.087 13.1926 425.983 12.8753 427.197 12.8753C428.384 12.8753 429.225 13.1995 429.722 13.8478C430.218 14.4961 430.466 15.4341 430.466 16.6617V22.124C430.466 22.4964 430.473 22.8551 430.487 23.1999C430.515 23.5448 430.542 23.8689 430.57 24.1724C430.611 24.462 430.646 24.7379 430.673 25H428.646C428.604 24.7793 428.549 24.5034 428.48 24.1724C428.425 23.8275 428.384 23.5172 428.356 23.2413C428.218 23.7103 427.949 24.1517 427.549 24.5655C427.163 24.9655 426.625 25.1655 425.935 25.1655ZM426.804 23.262C427.025 23.262 427.232 23.1999 427.425 23.0758C427.618 22.9516 427.79 22.8137 427.942 22.662C428.094 22.4964 428.197 22.3654 428.252 22.2688V18.8756C427.908 19.0687 427.583 19.2618 427.28 19.4549C426.977 19.648 426.708 19.8549 426.473 20.0756C426.252 20.2826 426.073 20.5239 425.935 20.7998C425.811 21.0619 425.749 21.3654 425.749 21.7102C425.749 22.193 425.839 22.5723 426.018 22.8482C426.197 23.1241 426.459 23.262 426.804 23.262ZM435.87 25.1655C434.891 25.1655 434.146 24.9724 433.636 24.5862C433.139 24.1862 432.801 23.6275 432.622 22.9103C432.456 22.193 432.374 21.3585 432.374 20.4067V17.6549C432.374 16.6479 432.463 15.7927 432.643 15.0892C432.822 14.372 433.16 13.8271 433.656 13.4547C434.167 13.0684 434.905 12.8753 435.87 12.8753C436.739 12.8753 437.408 13.0202 437.877 13.3098C438.36 13.5857 438.691 14.0064 438.87 14.572C439.05 15.1237 439.139 15.8134 439.139 16.641V17.3445H437.132V16.6203C437.132 16.0962 437.098 15.6824 437.029 15.3789C436.96 15.0754 436.836 14.8547 436.657 14.7168C436.477 14.5789 436.222 14.5099 435.891 14.5099C435.532 14.5099 435.257 14.5926 435.063 14.7582C434.87 14.9237 434.739 15.2065 434.67 15.6065C434.615 15.9927 434.588 16.5238 434.588 17.1997V20.9653C434.588 21.9861 434.684 22.6689 434.877 23.0137C435.07 23.3585 435.415 23.531 435.912 23.531C436.284 23.531 436.553 23.4482 436.719 23.2827C436.898 23.1034 437.008 22.8551 437.05 22.5378C437.105 22.2206 437.132 21.8619 437.132 21.4619V20.4895H439.139V21.3171C439.139 22.1171 439.043 22.8068 438.85 23.3861C438.67 23.9655 438.339 24.4069 437.857 24.7103C437.388 25.0138 436.726 25.1655 435.87 25.1655ZM444.294 25.1655C443.673 25.1655 443.17 25.0483 442.784 24.8138C442.411 24.5793 442.135 24.2482 441.956 23.8206C441.791 23.393 441.708 22.8896 441.708 22.3102V14.5099H440.446V13.0409H441.708V9.54415H443.922V13.0409H445.846V14.5099H443.922V22.1654C443.922 22.6344 443.998 22.9723 444.149 23.1792C444.301 23.3723 444.591 23.4689 445.018 23.4689C445.129 23.4689 445.253 23.462 445.391 23.4482C445.542 23.4344 445.687 23.4206 445.825 23.4068V25.0414C445.549 25.0828 445.294 25.1103 445.06 25.1241C444.825 25.1517 444.57 25.1655 444.294 25.1655Z" fill="#29304D"/>
<path d="M361.665 684.512V667.752H364.003V682.836H368.286V684.512H361.665ZM372.931 684.677C372.049 684.677 371.352 684.498 370.842 684.139C370.331 683.781 369.966 683.27 369.745 682.608C369.538 681.946 369.435 681.167 369.435 680.27V676.794C369.435 675.898 369.538 675.118 369.745 674.456C369.966 673.794 370.331 673.284 370.842 672.925C371.352 672.566 372.049 672.387 372.931 672.387C373.814 672.387 374.504 672.566 375.001 672.925C375.511 673.284 375.87 673.794 376.076 674.456C376.297 675.118 376.408 675.898 376.408 676.794V680.27C376.408 681.167 376.297 681.946 376.076 682.608C375.87 683.27 375.511 683.781 375.001 684.139C374.504 684.498 373.814 684.677 372.931 684.677ZM372.931 683.043C373.359 683.043 373.656 682.919 373.821 682.67C374 682.422 374.104 682.098 374.132 681.698C374.173 681.284 374.194 680.856 374.194 680.415V676.67C374.194 676.215 374.173 675.787 374.132 675.387C374.104 674.987 374 674.663 373.821 674.415C373.656 674.153 373.359 674.022 372.931 674.022C372.504 674.022 372.2 674.153 372.021 674.415C371.842 674.663 371.731 674.987 371.69 675.387C371.662 675.787 371.649 676.215 371.649 676.67V680.415C371.649 680.856 371.662 681.284 371.69 681.698C371.731 682.098 371.842 682.422 372.021 682.67C372.2 682.919 372.504 683.043 372.931 683.043ZM379.797 684.512L377.873 672.553H379.694L380.935 681.367L382.528 672.553H384.225L385.818 681.325L387.06 672.553H388.88L386.894 684.512H385.032L383.397 676.07L381.783 684.512H379.797ZM395.613 684.512V667.752H397.91V684.512H395.613ZM400.435 684.512V672.553H402.483V673.691C402.883 673.235 403.325 672.897 403.808 672.677C404.29 672.456 404.787 672.346 405.297 672.346C405.739 672.346 406.132 672.456 406.477 672.677C406.835 672.897 407.091 673.291 407.242 673.856C407.67 673.332 408.132 672.953 408.629 672.718C409.139 672.47 409.67 672.346 410.222 672.346C410.608 672.346 410.96 672.442 411.277 672.635C411.594 672.815 411.849 673.111 412.042 673.525C412.236 673.925 412.332 674.456 412.332 675.118V684.512H410.304V675.263C410.304 674.684 410.208 674.297 410.015 674.104C409.835 673.897 409.587 673.794 409.27 673.794C408.966 673.794 408.649 673.884 408.318 674.063C407.987 674.229 407.684 674.463 407.408 674.766C407.408 674.822 407.408 674.877 407.408 674.932C407.408 674.987 407.408 675.049 407.408 675.118V684.512H405.38V675.263C405.38 674.684 405.284 674.297 405.09 674.104C404.911 673.897 404.663 673.794 404.346 673.794C404.042 673.794 403.725 673.884 403.394 674.063C403.077 674.229 402.773 674.463 402.483 674.766V684.512H400.435ZM414.498 688.443V672.553H416.712V673.504C416.974 673.201 417.291 672.939 417.664 672.718C418.036 672.497 418.478 672.387 418.988 672.387C419.609 672.387 420.098 672.553 420.457 672.884C420.829 673.201 421.105 673.608 421.285 674.104C421.464 674.587 421.581 675.084 421.636 675.594C421.692 676.091 421.719 676.518 421.719 676.877V679.774C421.719 680.615 421.636 681.415 421.471 682.174C421.305 682.919 421.002 683.525 420.561 683.994C420.133 684.45 419.526 684.677 418.74 684.677C418.312 684.677 417.933 684.574 417.602 684.367C417.271 684.146 416.974 683.898 416.712 683.622V688.443H414.498ZM418.305 682.939C418.691 682.939 418.967 682.801 419.133 682.525C419.298 682.236 419.402 681.85 419.443 681.367C419.485 680.884 419.505 680.353 419.505 679.774V676.877C419.505 676.38 419.478 675.925 419.423 675.511C419.367 675.084 419.25 674.746 419.071 674.497C418.891 674.249 418.609 674.125 418.222 674.125C417.933 674.125 417.657 674.187 417.395 674.311C417.133 674.435 416.905 674.58 416.712 674.746V682.401C416.919 682.553 417.153 682.684 417.416 682.794C417.678 682.891 417.974 682.939 418.305 682.939ZM425.532 684.677C425.063 684.677 424.649 684.546 424.291 684.284C423.932 684.008 423.649 683.663 423.442 683.25C423.236 682.822 423.132 682.374 423.132 681.905C423.132 681.16 423.256 680.532 423.505 680.022C423.753 679.512 424.091 679.084 424.518 678.739C424.96 678.38 425.463 678.07 426.029 677.808C426.608 677.546 427.215 677.291 427.85 677.042V676.194C427.85 675.711 427.822 675.311 427.767 674.994C427.712 674.677 427.594 674.442 427.415 674.291C427.25 674.125 426.994 674.042 426.65 674.042C426.346 674.042 426.098 674.111 425.905 674.249C425.725 674.387 425.594 674.587 425.512 674.849C425.429 675.098 425.387 675.394 425.387 675.739V676.339L423.194 676.256C423.222 674.932 423.525 673.96 424.105 673.339C424.684 672.704 425.58 672.387 426.794 672.387C427.981 672.387 428.822 672.711 429.319 673.36C429.815 674.008 430.063 674.946 430.063 676.173V681.636C430.063 682.008 430.07 682.367 430.084 682.712C430.112 683.056 430.139 683.381 430.167 683.684C430.208 683.974 430.243 684.25 430.27 684.512H428.243C428.201 684.291 428.146 684.015 428.077 683.684C428.022 683.339 427.981 683.029 427.953 682.753C427.815 683.222 427.546 683.663 427.146 684.077C426.76 684.477 426.222 684.677 425.532 684.677ZM426.401 682.774C426.622 682.774 426.829 682.712 427.022 682.587C427.215 682.463 427.387 682.325 427.539 682.174C427.691 682.008 427.794 681.877 427.85 681.781V678.387C427.505 678.58 427.181 678.774 426.877 678.967C426.574 679.16 426.305 679.367 426.07 679.587C425.849 679.794 425.67 680.036 425.532 680.312C425.408 680.574 425.346 680.877 425.346 681.222C425.346 681.705 425.436 682.084 425.615 682.36C425.794 682.636 426.056 682.774 426.401 682.774ZM435.467 684.677C434.488 684.677 433.743 684.484 433.233 684.098C432.736 683.698 432.398 683.139 432.219 682.422C432.053 681.705 431.971 680.87 431.971 679.918V677.167C431.971 676.16 432.06 675.304 432.24 674.601C432.419 673.884 432.757 673.339 433.254 672.966C433.764 672.58 434.502 672.387 435.467 672.387C436.336 672.387 437.005 672.532 437.474 672.822C437.957 673.097 438.288 673.518 438.468 674.084C438.647 674.635 438.737 675.325 438.737 676.153V676.856H436.73V676.132C436.73 675.608 436.695 675.194 436.626 674.891C436.557 674.587 436.433 674.366 436.254 674.229C436.074 674.091 435.819 674.022 435.488 674.022C435.129 674.022 434.854 674.104 434.66 674.27C434.467 674.435 434.336 674.718 434.267 675.118C434.212 675.504 434.185 676.035 434.185 676.711V680.477C434.185 681.498 434.281 682.181 434.474 682.525C434.667 682.87 435.012 683.043 435.509 683.043C435.881 683.043 436.15 682.96 436.316 682.794C436.495 682.615 436.605 682.367 436.647 682.05C436.702 681.732 436.73 681.374 436.73 680.974V680.001H438.737V680.829C438.737 681.629 438.64 682.319 438.447 682.898C438.268 683.477 437.936 683.919 437.454 684.222C436.985 684.526 436.323 684.677 435.467 684.677ZM443.891 684.677C443.27 684.677 442.767 684.56 442.381 684.326C442.008 684.091 441.732 683.76 441.553 683.332C441.388 682.905 441.305 682.401 441.305 681.822V674.022H440.043V672.553H441.305V669.056H443.519V672.553H445.443V674.022H443.519V681.677C443.519 682.146 443.595 682.484 443.746 682.691C443.898 682.884 444.188 682.981 444.615 682.981C444.726 682.981 444.85 682.974 444.988 682.96C445.14 682.946 445.284 682.932 445.422 682.919V684.553C445.146 684.594 444.891 684.622 444.657 684.636C444.422 684.663 444.167 684.677 443.891 684.677Z" fill="#29304D"/>
<path d="M399.081 41.8863C398.407 41.2129 397.315 41.2129 396.642 41.8863L385.669 52.8591C384.996 53.5324 384.996 54.6241 385.669 55.2975C386.343 55.9708 387.434 55.9708 388.108 55.2975L397.861 45.5439L407.615 55.2975C408.288 55.9708 409.38 55.9708 410.053 55.2975C410.727 54.6241 410.727 53.5324 410.053 52.8591L399.081 41.8863ZM396.642 648.661C397.315 649.335 398.407 649.335 399.081 648.661L410.053 637.688C410.727 637.015 410.727 635.923 410.053 635.25C409.38 634.577 408.288 634.577 407.615 635.25L397.861 645.004L388.108 635.25C387.434 634.577 386.343 634.577 385.669 635.25C384.996 635.923 384.996 637.015 385.669 637.688L396.642 648.661ZM396.137 43.1055L396.137 647.442L399.586 647.442L399.586 43.1055L396.137 43.1055Z" fill="black"/>
<path d="M700.387 346.924C701.061 346.251 701.061 345.159 700.387 344.486L689.414 333.513C688.741 332.84 687.649 332.84 686.976 333.513C686.303 334.186 686.303 335.278 686.976 335.951L696.73 345.705L686.976 355.459C686.303 356.132 686.303 357.224 686.976 357.897C687.649 358.57 688.741 358.57 689.414 357.897L700.387 346.924ZM93.6121 344.486C92.9388 345.159 92.9388 346.251 93.6121 346.924L104.585 357.897C105.258 358.57 106.35 358.57 107.023 357.897C107.697 357.224 107.697 356.132 107.023 355.459L97.2698 345.705L107.023 335.951C107.697 335.278 107.697 334.186 107.023 333.513C106.35 332.84 105.258 332.84 104.585 333.513L93.6121 344.486ZM699.168 343.981L94.8314 343.981L94.8314 347.429L699.168 347.429L699.168 343.981Z" fill="black"/>
<rect x="480" y="168" width="83" height="83" fill="#91CCFF"/>
<rect x="546" y="59" width="83" height="83" fill="#FFCA95"/>
<rect x="374" y="255" width="83" height="83" fill="#FFF2C6"/>
<path d="M394.879 291V281.9H395.672L399.832 288.998H399.416L403.537 281.9H404.33V291H403.407V283.343H403.628L399.832 289.843H399.377L395.555 283.343H395.802V291H394.879ZM409.882 291.065C409.224 291.065 408.63 290.918 408.101 290.623C407.581 290.32 407.17 289.908 406.866 289.388C406.563 288.859 406.411 288.257 406.411 287.581C406.411 286.896 406.563 286.294 406.866 285.774C407.17 285.254 407.581 284.847 408.101 284.552C408.621 284.257 409.215 284.11 409.882 284.11C410.558 284.11 411.156 284.257 411.676 284.552C412.205 284.847 412.617 285.254 412.911 285.774C413.215 286.294 413.366 286.896 413.366 287.581C413.366 288.257 413.215 288.859 412.911 289.388C412.617 289.908 412.205 290.32 411.676 290.623C411.148 290.918 410.55 291.065 409.882 291.065ZM409.882 290.246C410.376 290.246 410.814 290.138 411.195 289.921C411.577 289.696 411.876 289.384 412.092 288.985C412.318 288.578 412.43 288.11 412.43 287.581C412.43 287.044 412.318 286.576 412.092 286.177C411.876 285.778 411.577 285.471 411.195 285.254C410.814 285.029 410.381 284.916 409.895 284.916C409.41 284.916 408.977 285.029 408.595 285.254C408.214 285.471 407.911 285.778 407.685 286.177C407.46 286.576 407.347 287.044 407.347 287.581C407.347 288.11 407.46 288.578 407.685 288.985C407.911 289.384 408.214 289.696 408.595 289.921C408.977 290.138 409.406 290.246 409.882 290.246ZM418.774 291.065C418.176 291.065 417.639 290.931 417.162 290.662C416.685 290.385 416.308 289.986 416.031 289.466C415.754 288.946 415.615 288.318 415.615 287.581C415.615 286.836 415.754 286.207 416.031 285.696C416.317 285.176 416.698 284.782 417.175 284.513C417.652 284.244 418.185 284.11 418.774 284.11C419.424 284.11 420.005 284.257 420.516 284.552C421.036 284.838 421.443 285.241 421.738 285.761C422.033 286.281 422.18 286.888 422.18 287.581C422.18 288.266 422.033 288.872 421.738 289.401C421.443 289.921 421.036 290.328 420.516 290.623C420.005 290.918 419.424 291.065 418.774 291.065ZM415.251 291V281.354H416.174V286.19L416.044 287.568L416.135 288.946V291H415.251ZM418.709 290.246C419.194 290.246 419.628 290.138 420.009 289.921C420.39 289.696 420.694 289.384 420.919 288.985C421.144 288.578 421.257 288.11 421.257 287.581C421.257 287.044 421.144 286.576 420.919 286.177C420.694 285.778 420.39 285.471 420.009 285.254C419.628 285.029 419.194 284.916 418.709 284.916C418.224 284.916 417.786 285.029 417.396 285.254C417.015 285.471 416.711 285.778 416.486 286.177C416.269 286.576 416.161 287.044 416.161 287.581C416.161 288.11 416.269 288.578 416.486 288.985C416.711 289.384 417.015 289.696 417.396 289.921C417.786 290.138 418.224 290.246 418.709 290.246ZM424.061 291V284.175H424.984V291H424.061ZM424.529 282.667C424.339 282.667 424.178 282.602 424.048 282.472C423.918 282.342 423.853 282.186 423.853 282.004C423.853 281.822 423.918 281.67 424.048 281.549C424.178 281.419 424.339 281.354 424.529 281.354C424.72 281.354 424.88 281.415 425.01 281.536C425.14 281.657 425.205 281.809 425.205 281.991C425.205 282.182 425.14 282.342 425.01 282.472C424.889 282.602 424.729 282.667 424.529 282.667ZM427.553 291V281.354H428.476V291H427.553ZM433.943 291.065C433.232 291.065 432.608 290.918 432.071 290.623C431.534 290.32 431.113 289.908 430.81 289.388C430.507 288.859 430.355 288.257 430.355 287.581C430.355 286.905 430.498 286.307 430.784 285.787C431.079 285.267 431.477 284.86 431.98 284.565C432.491 284.262 433.063 284.11 433.696 284.11C434.337 284.11 434.905 284.257 435.399 284.552C435.902 284.838 436.296 285.245 436.582 285.774C436.868 286.294 437.011 286.896 437.011 287.581C437.011 287.624 437.007 287.672 436.998 287.724C436.998 287.767 436.998 287.815 436.998 287.867H431.057V287.178H436.504L436.14 287.451C436.14 286.957 436.032 286.519 435.815 286.138C435.607 285.748 435.321 285.445 434.957 285.228C434.593 285.011 434.173 284.903 433.696 284.903C433.228 284.903 432.808 285.011 432.435 285.228C432.062 285.445 431.772 285.748 431.564 286.138C431.356 286.528 431.252 286.974 431.252 287.477V287.62C431.252 288.14 431.365 288.599 431.59 288.998C431.824 289.388 432.145 289.696 432.552 289.921C432.968 290.138 433.44 290.246 433.969 290.246C434.385 290.246 434.771 290.172 435.126 290.025C435.49 289.878 435.802 289.652 436.062 289.349L436.582 289.947C436.279 290.311 435.897 290.588 435.438 290.779C434.987 290.97 434.489 291.065 433.943 291.065ZM380.045 307V297.9H383.451C384.222 297.9 384.885 298.026 385.44 298.277C385.995 298.52 386.419 298.875 386.714 299.343C387.017 299.802 387.169 300.361 387.169 301.02C387.169 301.661 387.017 302.216 386.714 302.684C386.419 303.143 385.995 303.499 385.44 303.75C384.885 303.993 384.222 304.114 383.451 304.114H380.578L381.007 303.672V307H380.045ZM386.259 307L383.919 303.698H384.959L387.312 307H386.259ZM381.007 303.75L380.578 303.295H383.425C384.335 303.295 385.024 303.096 385.492 302.697C385.969 302.298 386.207 301.739 386.207 301.02C386.207 300.292 385.969 299.729 385.492 299.33C385.024 298.931 384.335 298.732 383.425 298.732H380.578L381.007 298.277V303.75ZM392.144 307.065C391.433 307.065 390.809 306.918 390.272 306.623C389.734 306.32 389.314 305.908 389.011 305.388C388.707 304.859 388.556 304.257 388.556 303.581C388.556 302.905 388.699 302.307 388.985 301.787C389.279 301.267 389.678 300.86 390.181 300.565C390.692 300.262 391.264 300.11 391.897 300.11C392.538 300.11 393.106 300.257 393.6 300.552C394.102 300.838 394.497 301.245 394.783 301.774C395.069 302.294 395.212 302.896 395.212 303.581C395.212 303.624 395.207 303.672 395.199 303.724C395.199 303.767 395.199 303.815 395.199 303.867H389.258V303.178H394.705L394.341 303.451C394.341 302.957 394.232 302.519 394.016 302.138C393.808 301.748 393.522 301.445 393.158 301.228C392.794 301.011 392.373 300.903 391.897 300.903C391.429 300.903 391.008 301.011 390.636 301.228C390.263 301.445 389.973 301.748 389.765 302.138C389.557 302.528 389.453 302.974 389.453 303.477V303.62C389.453 304.14 389.565 304.599 389.791 304.998C390.025 305.388 390.345 305.696 390.753 305.921C391.169 306.138 391.641 306.246 392.17 306.246C392.586 306.246 392.971 306.172 393.327 306.025C393.691 305.878 394.003 305.652 394.263 305.349L394.783 305.947C394.479 306.311 394.098 306.588 393.639 306.779C393.188 306.97 392.69 307.065 392.144 307.065ZM398.923 307.065C398.36 307.065 397.827 306.987 397.324 306.831C396.822 306.666 396.427 306.463 396.141 306.22L396.557 305.492C396.835 305.7 397.19 305.882 397.623 306.038C398.057 306.185 398.512 306.259 398.988 306.259C399.638 306.259 400.106 306.159 400.392 305.96C400.678 305.752 400.821 305.479 400.821 305.141C400.821 304.89 400.739 304.695 400.574 304.556C400.418 304.409 400.21 304.3 399.95 304.231C399.69 304.153 399.4 304.088 399.079 304.036C398.759 303.984 398.438 303.923 398.117 303.854C397.805 303.785 397.519 303.685 397.259 303.555C396.999 303.416 396.787 303.23 396.622 302.996C396.466 302.762 396.388 302.45 396.388 302.06C396.388 301.687 396.492 301.354 396.7 301.059C396.908 300.764 397.212 300.535 397.61 300.37C398.018 300.197 398.512 300.11 399.092 300.11C399.534 300.11 399.976 300.171 400.418 300.292C400.86 300.405 401.224 300.556 401.51 300.747L401.107 301.488C400.804 301.28 400.479 301.133 400.132 301.046C399.786 300.951 399.439 300.903 399.092 300.903C398.477 300.903 398.022 301.011 397.727 301.228C397.441 301.436 397.298 301.705 397.298 302.034C397.298 302.294 397.376 302.498 397.532 302.645C397.697 302.792 397.909 302.909 398.169 302.996C398.438 303.074 398.728 303.139 399.04 303.191C399.361 303.243 399.677 303.308 399.989 303.386C400.31 303.455 400.6 303.555 400.86 303.685C401.129 303.806 401.341 303.984 401.497 304.218C401.662 304.443 401.744 304.742 401.744 305.115C401.744 305.514 401.632 305.86 401.406 306.155C401.19 306.441 400.869 306.666 400.444 306.831C400.028 306.987 399.521 307.065 398.923 307.065ZM406.961 307.065C406.372 307.065 405.839 306.931 405.362 306.662C404.885 306.385 404.504 305.99 404.218 305.479C403.941 304.959 403.802 304.326 403.802 303.581C403.802 302.836 403.941 302.207 404.218 301.696C404.495 301.176 404.872 300.782 405.349 300.513C405.826 300.244 406.363 300.11 406.961 300.11C407.611 300.11 408.192 300.257 408.703 300.552C409.223 300.838 409.63 301.245 409.925 301.774C410.22 302.294 410.367 302.896 410.367 303.581C410.367 304.274 410.22 304.881 409.925 305.401C409.63 305.921 409.223 306.328 408.703 306.623C408.192 306.918 407.611 307.065 406.961 307.065ZM403.438 309.522V300.175H404.322V302.229L404.231 303.594L404.361 304.972V309.522H403.438ZM406.896 306.246C407.381 306.246 407.815 306.138 408.196 305.921C408.577 305.696 408.881 305.384 409.106 304.985C409.331 304.578 409.444 304.11 409.444 303.581C409.444 303.052 409.331 302.589 409.106 302.19C408.881 301.791 408.577 301.479 408.196 301.254C407.815 301.029 407.381 300.916 406.896 300.916C406.411 300.916 405.973 301.029 405.583 301.254C405.202 301.479 404.898 301.791 404.673 302.19C404.456 302.589 404.348 303.052 404.348 303.581C404.348 304.11 404.456 304.578 404.673 304.985C404.898 305.384 405.202 305.696 405.583 305.921C405.973 306.138 406.411 306.246 406.896 306.246ZM415.03 307.065C414.372 307.065 413.778 306.918 413.249 306.623C412.729 306.32 412.318 305.908 412.014 305.388C411.711 304.859 411.559 304.257 411.559 303.581C411.559 302.896 411.711 302.294 412.014 301.774C412.318 301.254 412.729 300.847 413.249 300.552C413.769 300.257 414.363 300.11 415.03 300.11C415.706 300.11 416.304 300.257 416.824 300.552C417.353 300.847 417.765 301.254 418.059 301.774C418.363 302.294 418.514 302.896 418.514 303.581C418.514 304.257 418.363 304.859 418.059 305.388C417.765 305.908 417.353 306.32 416.824 306.623C416.296 306.918 415.698 307.065 415.03 307.065ZM415.03 306.246C415.524 306.246 415.962 306.138 416.343 305.921C416.725 305.696 417.024 305.384 417.24 304.985C417.466 304.578 417.578 304.11 417.578 303.581C417.578 303.044 417.466 302.576 417.24 302.177C417.024 301.778 416.725 301.471 416.343 301.254C415.962 301.029 415.529 300.916 415.043 300.916C414.558 300.916 414.125 301.029 413.743 301.254C413.362 301.471 413.059 301.778 412.833 302.177C412.608 302.576 412.495 303.044 412.495 303.581C412.495 304.11 412.608 304.578 412.833 304.985C413.059 305.384 413.362 305.696 413.743 305.921C414.125 306.138 414.554 306.246 415.03 306.246ZM423.883 300.11C424.437 300.11 424.923 300.218 425.339 300.435C425.763 300.643 426.093 300.964 426.327 301.397C426.569 301.83 426.691 302.376 426.691 303.035V307H425.768V303.126C425.768 302.407 425.586 301.865 425.222 301.501C424.866 301.128 424.364 300.942 423.714 300.942C423.228 300.942 422.804 301.042 422.44 301.241C422.084 301.432 421.807 301.713 421.608 302.086C421.417 302.45 421.322 302.892 421.322 303.412V307H420.399V300.175H421.283V302.047L421.14 301.696C421.356 301.202 421.703 300.816 422.18 300.539C422.656 300.253 423.224 300.11 423.883 300.11ZM431.017 307.065C430.454 307.065 429.921 306.987 429.418 306.831C428.915 306.666 428.521 306.463 428.235 306.22L428.651 305.492C428.928 305.7 429.284 305.882 429.717 306.038C430.15 306.185 430.605 306.259 431.082 306.259C431.732 306.259 432.2 306.159 432.486 305.96C432.772 305.752 432.915 305.479 432.915 305.141C432.915 304.89 432.833 304.695 432.668 304.556C432.512 304.409 432.304 304.3 432.044 304.231C431.784 304.153 431.494 304.088 431.173 304.036C430.852 303.984 430.532 303.923 430.211 303.854C429.899 303.785 429.613 303.685 429.353 303.555C429.093 303.416 428.881 303.23 428.716 302.996C428.56 302.762 428.482 302.45 428.482 302.06C428.482 301.687 428.586 301.354 428.794 301.059C429.002 300.764 429.305 300.535 429.704 300.37C430.111 300.197 430.605 300.11 431.186 300.11C431.628 300.11 432.07 300.171 432.512 300.292C432.954 300.405 433.318 300.556 433.604 300.747L433.201 301.488C432.898 301.28 432.573 301.133 432.226 301.046C431.879 300.951 431.533 300.903 431.186 300.903C430.571 300.903 430.116 301.011 429.821 301.228C429.535 301.436 429.392 301.705 429.392 302.034C429.392 302.294 429.47 302.498 429.626 302.645C429.791 302.792 430.003 302.909 430.263 302.996C430.532 303.074 430.822 303.139 431.134 303.191C431.455 303.243 431.771 303.308 432.083 303.386C432.404 303.455 432.694 303.555 432.954 303.685C433.223 303.806 433.435 303.984 433.591 304.218C433.756 304.443 433.838 304.742 433.838 305.115C433.838 305.514 433.725 305.86 433.5 306.155C433.283 306.441 432.963 306.666 432.538 306.831C432.122 306.987 431.615 307.065 431.017 307.065ZM435.532 307V300.175H436.455V307H435.532ZM436 298.667C435.809 298.667 435.649 298.602 435.519 298.472C435.389 298.342 435.324 298.186 435.324 298.004C435.324 297.822 435.389 297.67 435.519 297.549C435.649 297.419 435.809 297.354 436 297.354C436.19 297.354 436.351 297.415 436.481 297.536C436.611 297.657 436.676 297.809 436.676 297.991C436.676 298.182 436.611 298.342 436.481 298.472C436.359 298.602 436.199 298.667 436 298.667ZM440.778 307L437.749 300.175H438.711L441.493 306.506H441.038L443.859 300.175H444.769L441.727 307H440.778ZM448.777 307.065C448.067 307.065 447.443 306.918 446.905 306.623C446.368 306.32 445.948 305.908 445.644 305.388C445.341 304.859 445.189 304.257 445.189 303.581C445.189 302.905 445.332 302.307 445.618 301.787C445.913 301.267 446.312 300.86 446.814 300.565C447.326 300.262 447.898 300.11 448.53 300.11C449.172 300.11 449.739 300.257 450.233 300.552C450.736 300.838 451.13 301.245 451.416 301.774C451.702 302.294 451.845 302.896 451.845 303.581C451.845 303.624 451.841 303.672 451.832 303.724C451.832 303.767 451.832 303.815 451.832 303.867H445.891V303.178H451.338L450.974 303.451C450.974 302.957 450.866 302.519 450.649 302.138C450.441 301.748 450.155 301.445 449.791 301.228C449.427 301.011 449.007 300.903 448.53 300.903C448.062 300.903 447.642 301.011 447.269 301.228C446.897 301.445 446.606 301.748 446.398 302.138C446.19 302.528 446.086 302.974 446.086 303.477V303.62C446.086 304.14 446.199 304.599 446.424 304.998C446.658 305.388 446.979 305.696 447.386 305.921C447.802 306.138 448.275 306.246 448.803 306.246C449.219 306.246 449.605 306.172 449.96 306.025C450.324 305.878 450.636 305.652 450.896 305.349L451.416 305.947C451.113 306.311 450.732 306.588 450.272 306.779C449.822 306.97 449.323 307.065 448.777 307.065Z" fill="#29304D"/>
<path d="M507.713 203.9H508.662V213H507.713V203.9ZM502.019 213H501.057V203.9H502.019V213ZM507.804 208.801H501.915V207.956H507.804V208.801ZM511.489 215.587C511.169 215.587 510.861 215.535 510.566 215.431C510.28 215.327 510.033 215.171 509.825 214.963L510.254 214.274C510.428 214.439 510.614 214.564 510.813 214.651C511.021 214.746 511.251 214.794 511.502 214.794C511.806 214.794 512.066 214.707 512.282 214.534C512.508 214.369 512.72 214.075 512.919 213.65L513.361 212.649L513.465 212.506L516.273 206.175H517.183L513.764 213.819C513.574 214.261 513.361 214.612 513.127 214.872C512.902 215.132 512.655 215.314 512.386 215.418C512.118 215.531 511.819 215.587 511.489 215.587ZM513.309 213.195L510.163 206.175H511.125L513.907 212.441L513.309 213.195ZM522.006 213.065C521.408 213.065 520.871 212.931 520.394 212.662C519.918 212.385 519.541 211.986 519.263 211.466C518.986 210.946 518.847 210.318 518.847 209.581C518.847 208.836 518.986 208.207 519.263 207.696C519.549 207.176 519.931 206.782 520.407 206.513C520.884 206.244 521.417 206.11 522.006 206.11C522.656 206.11 523.237 206.257 523.748 206.552C524.268 206.838 524.676 207.241 524.97 207.761C525.265 208.281 525.412 208.888 525.412 209.581C525.412 210.266 525.265 210.872 524.97 211.401C524.676 211.921 524.268 212.328 523.748 212.623C523.237 212.918 522.656 213.065 522.006 213.065ZM518.483 213V203.354H519.406V208.19L519.276 209.568L519.367 210.946V213H518.483ZM521.941 212.246C522.427 212.246 522.86 212.138 523.241 211.921C523.623 211.696 523.926 211.384 524.151 210.985C524.377 210.578 524.489 210.11 524.489 209.581C524.489 209.044 524.377 208.576 524.151 208.177C523.926 207.778 523.623 207.471 523.241 207.254C522.86 207.029 522.427 206.916 521.941 206.916C521.456 206.916 521.018 207.029 520.628 207.254C520.247 207.471 519.944 207.778 519.718 208.177C519.502 208.576 519.393 209.044 519.393 209.581C519.393 210.11 519.502 210.578 519.718 210.985C519.944 211.384 520.247 211.696 520.628 211.921C521.018 212.138 521.456 212.246 521.941 212.246ZM527.294 213V206.175H528.178V208.034L528.087 207.709C528.278 207.189 528.598 206.795 529.049 206.526C529.5 206.249 530.059 206.11 530.726 206.11V207.007C530.691 207.007 530.657 207.007 530.622 207.007C530.587 206.998 530.553 206.994 530.518 206.994C529.799 206.994 529.235 207.215 528.828 207.657C528.421 208.09 528.217 208.71 528.217 209.516V213H527.294ZM532.41 213V206.175H533.333V213H532.41ZM532.878 204.667C532.687 204.667 532.527 204.602 532.397 204.472C532.267 204.342 532.202 204.186 532.202 204.004C532.202 203.822 532.267 203.67 532.397 203.549C532.527 203.419 532.687 203.354 532.878 203.354C533.069 203.354 533.229 203.415 533.359 203.536C533.489 203.657 533.554 203.809 533.554 203.991C533.554 204.182 533.489 204.342 533.359 204.472C533.238 204.602 533.077 204.667 532.878 204.667ZM538.618 213.065C537.968 213.065 537.383 212.918 536.863 212.623C536.352 212.328 535.949 211.921 535.654 211.401C535.36 210.872 535.212 210.266 535.212 209.581C535.212 208.888 535.36 208.281 535.654 207.761C535.949 207.241 536.352 206.838 536.863 206.552C537.383 206.257 537.968 206.11 538.618 206.11C539.216 206.11 539.749 206.244 540.217 206.513C540.694 206.782 541.071 207.176 541.348 207.696C541.634 208.207 541.777 208.836 541.777 209.581C541.777 210.318 541.639 210.946 541.361 211.466C541.084 211.986 540.707 212.385 540.23 212.662C539.762 212.931 539.225 213.065 538.618 213.065ZM538.683 212.246C539.169 212.246 539.602 212.138 539.983 211.921C540.373 211.696 540.677 211.384 540.893 210.985C541.119 210.578 541.231 210.11 541.231 209.581C541.231 209.044 541.119 208.576 540.893 208.177C540.677 207.778 540.373 207.471 539.983 207.254C539.602 207.029 539.169 206.916 538.683 206.916C538.207 206.916 537.778 207.029 537.396 207.254C537.015 207.471 536.712 207.778 536.486 208.177C536.261 208.576 536.148 209.044 536.148 209.581C536.148 210.11 536.261 210.578 536.486 210.985C536.712 211.384 537.015 211.696 537.396 211.921C537.778 212.138 538.207 212.246 538.683 212.246ZM541.257 213V210.946L541.348 209.568L541.218 208.19V203.354H542.141V213H541.257Z" fill="#29304D"/>
<path d="M566.879 95V85.9H567.672L571.832 92.998H571.416L575.537 85.9H576.33V95H575.407V87.343H575.628L571.832 93.843H571.377L567.555 87.343H567.802V95H566.879ZM581.882 95.065C581.224 95.065 580.63 94.9177 580.101 94.623C579.581 94.3197 579.17 93.908 578.866 93.388C578.563 92.8593 578.411 92.257 578.411 91.581C578.411 90.8963 578.563 90.294 578.866 89.774C579.17 89.254 579.581 88.8467 580.101 88.552C580.621 88.2573 581.215 88.11 581.882 88.11C582.558 88.11 583.156 88.2573 583.676 88.552C584.205 88.8467 584.617 89.254 584.911 89.774C585.215 90.294 585.366 90.8963 585.366 91.581C585.366 92.257 585.215 92.8593 584.911 93.388C584.617 93.908 584.205 94.3197 583.676 94.623C583.148 94.9177 582.55 95.065 581.882 95.065ZM581.882 94.246C582.376 94.246 582.814 94.1377 583.195 93.921C583.577 93.6957 583.876 93.3837 584.092 92.985C584.318 92.5777 584.43 92.1097 584.43 91.581C584.43 91.0437 584.318 90.5757 584.092 90.177C583.876 89.7783 583.577 89.4707 583.195 89.254C582.814 89.0287 582.381 88.916 581.895 88.916C581.41 88.916 580.977 89.0287 580.595 89.254C580.214 89.4707 579.911 89.7783 579.685 90.177C579.46 90.5757 579.347 91.0437 579.347 91.581C579.347 92.1097 579.46 92.5777 579.685 92.985C579.911 93.3837 580.214 93.6957 580.595 93.921C580.977 94.1377 581.406 94.246 581.882 94.246ZM590.774 95.065C590.176 95.065 589.639 94.9307 589.162 94.662C588.685 94.3847 588.308 93.986 588.031 93.466C587.754 92.946 587.615 92.3177 587.615 91.581C587.615 90.8357 587.754 90.2073 588.031 89.696C588.317 89.176 588.698 88.7817 589.175 88.513C589.652 88.2443 590.185 88.11 590.774 88.11C591.424 88.11 592.005 88.2573 592.516 88.552C593.036 88.838 593.443 89.241 593.738 89.761C594.033 90.281 594.18 90.8877 594.18 91.581C594.18 92.2657 594.033 92.8723 593.738 93.401C593.443 93.921 593.036 94.3283 592.516 94.623C592.005 94.9177 591.424 95.065 590.774 95.065ZM587.251 95V85.354H588.174V90.19L588.044 91.568L588.135 92.946V95H587.251ZM590.709 94.246C591.194 94.246 591.628 94.1377 592.009 93.921C592.39 93.6957 592.694 93.3837 592.919 92.985C593.144 92.5777 593.257 92.1097 593.257 91.581C593.257 91.0437 593.144 90.5757 592.919 90.177C592.694 89.7783 592.39 89.4707 592.009 89.254C591.628 89.0287 591.194 88.916 590.709 88.916C590.224 88.916 589.786 89.0287 589.396 89.254C589.015 89.4707 588.711 89.7783 588.486 90.177C588.269 90.5757 588.161 91.0437 588.161 91.581C588.161 92.1097 588.269 92.5777 588.486 92.985C588.711 93.3837 589.015 93.6957 589.396 93.921C589.786 94.1377 590.224 94.246 590.709 94.246ZM596.061 95V88.175H596.984V95H596.061ZM596.529 86.667C596.339 86.667 596.178 86.602 596.048 86.472C595.918 86.342 595.853 86.186 595.853 86.004C595.853 85.822 595.918 85.6703 596.048 85.549C596.178 85.419 596.339 85.354 596.529 85.354C596.72 85.354 596.88 85.4147 597.01 85.536C597.14 85.6573 597.205 85.809 597.205 85.991C597.205 86.1817 597.14 86.342 597.01 86.472C596.889 86.602 596.729 86.667 596.529 86.667ZM599.553 95V85.354H600.476V95H599.553ZM605.943 95.065C605.232 95.065 604.608 94.9177 604.071 94.623C603.534 94.3197 603.113 93.908 602.81 93.388C602.507 92.8593 602.355 92.257 602.355 91.581C602.355 90.905 602.498 90.307 602.784 89.787C603.079 89.267 603.477 88.8597 603.98 88.565C604.491 88.2617 605.063 88.11 605.696 88.11C606.337 88.11 606.905 88.2573 607.399 88.552C607.902 88.838 608.296 89.2453 608.582 89.774C608.868 90.294 609.011 90.8963 609.011 91.581C609.011 91.6243 609.007 91.672 608.998 91.724C608.998 91.7673 608.998 91.815 608.998 91.867H603.057V91.178H608.504L608.14 91.451C608.14 90.957 608.032 90.5193 607.815 90.138C607.607 89.748 607.321 89.4447 606.957 89.228C606.593 89.0113 606.173 88.903 605.696 88.903C605.228 88.903 604.808 89.0113 604.435 89.228C604.062 89.4447 603.772 89.748 603.564 90.138C603.356 90.528 603.252 90.9743 603.252 91.477V91.62C603.252 92.14 603.365 92.5993 603.59 92.998C603.824 93.388 604.145 93.6957 604.552 93.921C604.968 94.1377 605.44 94.246 605.969 94.246C606.385 94.246 606.771 94.1723 607.126 94.025C607.49 93.8777 607.802 93.6523 608.062 93.349L608.582 93.947C608.279 94.311 607.897 94.5883 607.438 94.779C606.987 94.9697 606.489 95.065 605.943 95.065ZM558.486 111.078C557.801 111.078 557.164 110.965 556.575 110.74C555.994 110.506 555.487 110.181 555.054 109.765C554.629 109.34 554.296 108.851 554.053 108.296C553.819 107.733 553.702 107.117 553.702 106.45C553.702 105.783 553.819 105.172 554.053 104.617C554.296 104.054 554.629 103.564 555.054 103.148C555.487 102.723 555.994 102.398 556.575 102.173C557.156 101.939 557.793 101.822 558.486 101.822C559.171 101.822 559.803 101.939 560.384 102.173C560.965 102.398 561.467 102.719 561.892 103.135C562.325 103.551 562.659 104.041 562.893 104.604C563.136 105.167 563.257 105.783 563.257 106.45C563.257 107.117 563.136 107.733 562.893 108.296C562.659 108.859 562.325 109.349 561.892 109.765C561.467 110.181 560.965 110.506 560.384 110.74C559.803 110.965 559.171 111.078 558.486 111.078ZM558.486 110.22C559.032 110.22 559.535 110.129 559.994 109.947C560.462 109.756 560.865 109.492 561.203 109.154C561.55 108.807 561.818 108.409 562.009 107.958C562.2 107.499 562.295 106.996 562.295 106.45C562.295 105.904 562.2 105.406 562.009 104.955C561.818 104.496 561.55 104.097 561.203 103.759C560.865 103.412 560.462 103.148 559.994 102.966C559.535 102.775 559.032 102.68 558.486 102.68C557.94 102.68 557.433 102.775 556.965 102.966C556.497 103.148 556.09 103.412 555.743 103.759C555.405 104.097 555.136 104.496 554.937 104.955C554.746 105.406 554.651 105.904 554.651 106.45C554.651 106.987 554.746 107.486 554.937 107.945C555.136 108.404 555.405 108.807 555.743 109.154C556.09 109.492 556.497 109.756 556.965 109.947C557.433 110.129 557.94 110.22 558.486 110.22ZM568.741 111.065C568.152 111.065 567.619 110.931 567.142 110.662C566.665 110.385 566.284 109.99 565.998 109.479C565.721 108.959 565.582 108.326 565.582 107.581C565.582 106.836 565.721 106.207 565.998 105.696C566.275 105.176 566.652 104.782 567.129 104.513C567.606 104.244 568.143 104.11 568.741 104.11C569.391 104.11 569.972 104.257 570.483 104.552C571.003 104.838 571.41 105.245 571.705 105.774C572 106.294 572.147 106.896 572.147 107.581C572.147 108.274 572 108.881 571.705 109.401C571.41 109.921 571.003 110.328 570.483 110.623C569.972 110.918 569.391 111.065 568.741 111.065ZM565.218 113.522V104.175H566.102V106.229L566.011 107.594L566.141 108.972V113.522H565.218ZM568.676 110.246C569.161 110.246 569.595 110.138 569.976 109.921C570.357 109.696 570.661 109.384 570.886 108.985C571.111 108.578 571.224 108.11 571.224 107.581C571.224 107.052 571.111 106.589 570.886 106.19C570.661 105.791 570.357 105.479 569.976 105.254C569.595 105.029 569.161 104.916 568.676 104.916C568.191 104.916 567.753 105.029 567.363 105.254C566.982 105.479 566.678 105.791 566.453 106.19C566.236 106.589 566.128 107.052 566.128 107.581C566.128 108.11 566.236 108.578 566.453 108.985C566.678 109.384 566.982 109.696 567.363 109.921C567.753 110.138 568.191 110.246 568.676 110.246ZM576.187 111.065C575.545 111.065 575.051 110.892 574.705 110.545C574.358 110.198 574.185 109.709 574.185 109.076V102.667H575.108V109.024C575.108 109.423 575.207 109.73 575.407 109.947C575.615 110.164 575.909 110.272 576.291 110.272C576.698 110.272 577.036 110.155 577.305 109.921L577.63 110.584C577.448 110.749 577.227 110.87 576.967 110.948C576.715 111.026 576.455 111.065 576.187 111.065ZM572.963 104.942V104.175H577.188V104.942H572.963ZM579.31 111V104.175H580.233V111H579.31ZM579.778 102.667C579.587 102.667 579.427 102.602 579.297 102.472C579.167 102.342 579.102 102.186 579.102 102.004C579.102 101.822 579.167 101.67 579.297 101.549C579.427 101.419 579.587 101.354 579.778 101.354C579.969 101.354 580.129 101.415 580.259 101.536C580.389 101.657 580.454 101.809 580.454 101.991C580.454 102.182 580.389 102.342 580.259 102.472C580.138 102.602 579.977 102.667 579.778 102.667ZM591.329 104.11C591.884 104.11 592.365 104.218 592.772 104.435C593.188 104.643 593.509 104.964 593.734 105.397C593.968 105.83 594.085 106.376 594.085 107.035V111H593.162V107.126C593.162 106.407 592.989 105.865 592.642 105.501C592.304 105.128 591.823 104.942 591.199 104.942C590.731 104.942 590.324 105.042 589.977 105.241C589.639 105.432 589.375 105.713 589.184 106.086C589.002 106.45 588.911 106.892 588.911 107.412V111H587.988V107.126C587.988 106.407 587.815 105.865 587.468 105.501C587.121 105.128 586.636 104.942 586.012 104.942C585.553 104.942 585.15 105.042 584.803 105.241C584.456 105.432 584.188 105.713 583.997 106.086C583.815 106.45 583.724 106.892 583.724 107.412V111H582.801V104.175H583.685V106.021L583.542 105.696C583.75 105.202 584.084 104.816 584.543 104.539C585.011 104.253 585.561 104.11 586.194 104.11C586.861 104.11 587.429 104.279 587.897 104.617C588.365 104.946 588.668 105.445 588.807 106.112L588.443 105.969C588.642 105.414 588.993 104.968 589.496 104.63C590.007 104.283 590.618 104.11 591.329 104.11ZM596.588 111V104.175H597.511V111H596.588ZM597.056 102.667C596.866 102.667 596.705 102.602 596.575 102.472C596.445 102.342 596.38 102.186 596.38 102.004C596.38 101.822 596.445 101.67 596.575 101.549C596.705 101.419 596.866 101.354 597.056 101.354C597.247 101.354 597.407 101.415 597.537 101.536C597.667 101.657 597.732 101.809 597.732 101.991C597.732 102.182 597.667 102.342 597.537 102.472C597.416 102.602 597.256 102.667 597.056 102.667ZM599.338 111V110.389L603.888 104.63L604.083 104.942H599.416V104.175H604.811V104.773L600.274 110.545L600.04 110.233H604.902V111H599.338ZM609.504 111.065C608.793 111.065 608.169 110.918 607.632 110.623C607.095 110.32 606.674 109.908 606.371 109.388C606.068 108.859 605.916 108.257 605.916 107.581C605.916 106.905 606.059 106.307 606.345 105.787C606.64 105.267 607.038 104.86 607.541 104.565C608.052 104.262 608.624 104.11 609.257 104.11C609.898 104.11 610.466 104.257 610.96 104.552C611.463 104.838 611.857 105.245 612.143 105.774C612.429 106.294 612.572 106.896 612.572 107.581C612.572 107.624 612.568 107.672 612.559 107.724C612.559 107.767 612.559 107.815 612.559 107.867H606.618V107.178H612.065L611.701 107.451C611.701 106.957 611.593 106.519 611.376 106.138C611.168 105.748 610.882 105.445 610.518 105.228C610.154 105.011 609.734 104.903 609.257 104.903C608.789 104.903 608.369 105.011 607.996 105.228C607.623 105.445 607.333 105.748 607.125 106.138C606.917 106.528 606.813 106.974 606.813 107.477V107.62C606.813 108.14 606.926 108.599 607.151 108.998C607.385 109.388 607.706 109.696 608.113 109.921C608.529 110.138 609.001 110.246 609.53 110.246C609.946 110.246 610.332 110.172 610.687 110.025C611.051 109.878 611.363 109.652 611.623 109.349L612.143 109.947C611.84 110.311 611.458 110.588 610.999 110.779C610.548 110.97 610.05 111.065 609.504 111.065ZM617.168 111.065C616.518 111.065 615.933 110.918 615.413 110.623C614.901 110.328 614.498 109.921 614.204 109.401C613.909 108.872 613.762 108.266 613.762 107.581C613.762 106.888 613.909 106.281 614.204 105.761C614.498 105.241 614.901 104.838 615.413 104.552C615.933 104.257 616.518 104.11 617.168 104.11C617.766 104.11 618.299 104.244 618.767 104.513C619.243 104.782 619.62 105.176 619.898 105.696C620.184 106.207 620.327 106.836 620.327 107.581C620.327 108.318 620.188 108.946 619.911 109.466C619.633 109.986 619.256 110.385 618.78 110.662C618.312 110.931 617.774 111.065 617.168 111.065ZM617.233 110.246C617.718 110.246 618.151 110.138 618.533 109.921C618.923 109.696 619.226 109.384 619.443 108.985C619.668 108.578 619.781 108.11 619.781 107.581C619.781 107.044 619.668 106.576 619.443 106.177C619.226 105.778 618.923 105.471 618.533 105.254C618.151 105.029 617.718 104.916 617.233 104.916C616.756 104.916 616.327 105.029 615.946 105.254C615.564 105.471 615.261 105.778 615.036 106.177C614.81 106.576 614.698 107.044 614.698 107.581C614.698 108.11 614.81 108.578 615.036 108.985C615.261 109.384 615.564 109.696 615.946 109.921C616.327 110.138 616.756 110.246 617.233 110.246ZM619.807 111V108.946L619.898 107.568L619.768 106.19V101.354H620.691V111H619.807Z" fill="#29304D"/>
</svg>
